<svg width="299" height="316" viewBox="0 0 299 316" fill="none" xmlns="http://www.w3.org/2000/svg">
<path fill-rule="evenodd" clip-rule="evenodd" d="M120.5 32C120.5 30.8954 121.395 30 122.5 30C123.89 30 125.269 30.0167 126.636 30.0501C127.74 30.0771 128.613 30.9941 128.587 32.0983C128.56 33.2026 127.643 34.0759 126.538 34.0489C125.204 34.0164 123.858 34 122.5 34C121.395 34 120.5 33.1045 120.5 32ZM132.755 32.3055C132.84 31.2042 133.801 30.3796 134.902 30.4638C137.702 30.6778 140.448 30.965 143.138 31.324C144.233 31.4701 145.002 32.4761 144.856 33.571C144.71 34.6658 143.704 35.435 142.609 35.2889C139.995 34.9401 137.324 34.6605 134.597 34.4521C133.496 34.3679 132.671 33.4069 132.755 32.3055ZM148.969 34.2451C149.182 33.1612 150.233 32.4552 151.317 32.6681C154.081 33.2111 156.779 33.8348 159.409 34.5372C160.476 34.8222 161.11 35.9184 160.825 36.9855C160.54 38.0527 159.444 38.6868 158.377 38.4018C155.835 37.723 153.224 37.1193 150.546 36.5931C149.462 36.3802 148.756 35.3289 148.969 34.2451ZM164.813 38.2034C165.175 37.1599 166.314 36.6074 167.358 36.9695C170.022 37.894 172.607 38.9064 175.11 40.0044C176.121 40.4482 176.581 41.6279 176.138 42.6394C175.694 43.6509 174.514 44.1111 173.503 43.6673C171.1 42.613 168.614 41.6391 166.047 40.7485C165.003 40.3864 164.451 39.247 164.813 38.2034ZM179.885 44.4752C180.415 43.5057 181.63 43.1489 182.599 43.6782C185.076 45.0306 187.457 46.4767 189.739 48.0135C190.655 48.6305 190.898 49.8734 190.281 50.7895C189.664 51.7057 188.421 51.9482 187.505 51.3312C185.328 49.8651 183.053 48.4833 180.682 47.189C179.713 46.6597 179.356 45.4447 179.885 44.4752ZM193.623 53.2849C194.328 52.4344 195.588 52.3161 196.439 53.0208C198.607 54.8166 200.662 56.7075 202.602 58.69C203.375 59.4794 203.361 60.7457 202.572 61.5183C201.782 62.2908 200.516 62.2772 199.744 61.4878C197.902 59.6061 195.949 57.8093 193.887 56.101C193.036 55.3963 192.918 54.1355 193.623 53.2849ZM205.326 64.6512C206.194 63.968 207.451 64.1179 208.134 64.9859C208.999 66.0852 209.834 67.207 210.637 68.3507C211.272 69.2547 211.053 70.5021 210.149 71.1368C209.245 71.7715 207.998 71.5532 207.363 70.6492C206.602 69.5652 205.811 68.5019 204.991 67.4597C204.308 66.5917 204.458 65.3343 205.326 64.6512ZM221.712 88.6617C222.727 88.2266 223.903 88.6969 224.338 89.7121C224.853 90.9139 225.342 92.1335 225.806 93.3682C226.194 94.4023 225.67 95.5553 224.636 95.9434C223.602 96.3316 222.449 95.8079 222.061 94.7738C221.618 93.5946 221.152 92.4318 220.662 91.2878C220.227 90.2726 220.697 89.0968 221.712 88.6617ZM225.786 99.4628C226.848 99.1622 227.954 99.7801 228.254 100.843C228.964 103.352 229.579 105.901 230.101 108.473C230.321 109.555 229.622 110.611 228.539 110.831C227.457 111.05 226.401 110.351 226.181 109.269C225.678 106.792 225.087 104.34 224.405 101.932C224.105 100.869 224.723 99.7635 225.786 99.4628ZM229.146 114.483C230.241 114.34 231.245 115.111 231.388 116.206C231.729 118.808 231.978 121.414 232.139 124.007C232.207 125.109 231.369 126.058 230.266 126.127C229.164 126.195 228.215 125.357 228.146 124.254C227.991 121.751 227.75 119.235 227.422 116.725C227.279 115.63 228.051 114.626 229.146 114.483ZM230.369 129.827C231.474 129.835 232.363 130.737 232.355 131.841C232.337 134.494 232.224 137.114 232.019 139.679C231.93 140.78 230.966 141.601 229.865 141.513C228.764 141.425 227.943 140.461 228.031 139.36C228.229 136.894 228.338 134.371 228.356 131.813C228.363 130.709 229.265 129.82 230.369 129.827ZM229.427 145.187C230.517 145.365 231.257 146.392 231.079 147.483C230.643 150.155 230.097 152.739 229.441 155.208C229.158 156.275 228.063 156.911 226.995 156.627C225.927 156.344 225.292 155.249 225.575 154.181C226.195 151.848 226.714 149.392 227.131 146.839C227.309 145.749 228.337 145.009 229.427 145.187ZM225.845 160.143C226.868 160.559 227.359 161.726 226.943 162.749C226.428 164.016 225.875 165.236 225.285 166.403C224.786 167.388 223.583 167.783 222.597 167.285C221.612 166.786 221.217 165.583 221.715 164.597C222.253 163.535 222.761 162.414 223.238 161.241C223.655 160.218 224.821 159.726 225.845 160.143ZM59.5857 180.347C62.6695 180.29 65.6448 180.533 68.4697 181.054C69.556 181.254 70.2743 182.297 70.0741 183.383C69.8739 184.469 68.831 185.188 67.7448 184.987C65.1932 184.517 62.4861 184.294 59.6603 184.346C58.5559 184.367 57.6439 183.488 57.6234 182.384C57.6028 181.28 58.4814 180.368 59.5857 180.347ZM53.1248 182.878C53.3366 183.962 52.6294 185.013 51.5454 185.224C48.9623 185.729 46.3185 186.456 43.638 187.425C42.5992 187.8 41.4527 187.262 41.0774 186.223C40.7021 185.185 41.24 184.038 42.2789 183.663C45.1478 182.626 47.9895 181.843 50.7784 181.299C51.8625 181.087 52.913 181.794 53.1248 182.878ZM74.4108 184.697C74.8605 183.688 76.043 183.234 77.0518 183.684C78.4526 184.309 79.7898 185.016 81.0547 185.801C81.9932 186.383 82.2818 187.616 81.6993 188.555C81.1168 189.493 79.8838 189.782 78.9453 189.199C77.8393 188.513 76.6632 187.89 75.4232 187.338C74.4143 186.888 73.9611 185.705 74.4108 184.697ZM36.9365 188.06C37.4498 189.038 37.0731 190.247 36.0951 190.761C33.7435 191.995 31.3814 193.421 29.0245 195.05C28.1159 195.678 26.8702 195.451 26.2421 194.542C25.614 193.634 25.8414 192.388 26.75 191.76C29.2372 190.04 31.7379 188.53 34.2361 187.219C35.2141 186.706 36.4231 187.082 36.9365 188.06ZM22.671 197.319C23.3935 198.154 23.302 199.417 22.4665 200.14C21.4339 201.033 20.4052 201.968 19.3817 202.946C18.5011 203.787 17.6315 204.727 16.7814 205.757C16.0784 206.609 14.8179 206.73 13.9659 206.027C13.1139 205.324 12.9932 204.063 13.6962 203.211C14.6383 202.069 15.6146 201.013 16.6183 200.054C17.689 199.031 18.7667 198.051 19.85 197.114C20.6854 196.392 21.9485 196.483 22.671 197.319ZM100.36 200.355C100.993 199.449 102.24 199.228 103.145 199.86C104.268 200.644 105.388 201.414 106.512 202.167C107.43 202.782 107.675 204.024 107.06 204.942C106.445 205.86 105.203 206.105 104.285 205.49C103.136 204.72 101.993 203.935 100.855 203.14C99.9492 202.507 99.7279 201.26 100.36 200.355ZM110.644 207.208C111.199 206.253 112.423 205.928 113.378 206.483C115.704 207.834 118.071 209.082 120.51 210.199C121.514 210.659 121.956 211.846 121.496 212.85C121.036 213.854 119.849 214.296 118.845 213.836C116.27 212.657 113.788 211.347 111.369 209.942C110.414 209.387 110.089 208.163 110.644 207.208ZM11.6326 209.5C12.5958 210.041 12.9384 211.26 12.3978 212.223C11.164 214.421 10.0333 216.817 9.04111 219.371C8.64109 220.401 7.48216 220.911 6.45257 220.511C5.42298 220.111 4.91261 218.952 5.31264 217.922C6.37002 215.201 7.58006 212.634 8.90963 210.266C9.45026 209.302 10.6694 208.96 11.6326 209.5ZM125.447 214.388C125.781 213.335 126.905 212.752 127.958 213.086C130.43 213.87 133 214.512 135.693 214.984C136.781 215.175 137.509 216.211 137.318 217.299C137.127 218.387 136.091 219.115 135.003 218.924C132.127 218.42 129.385 217.735 126.749 216.899C125.696 216.565 125.113 215.441 125.447 214.388ZM165.958 215.593C166.183 216.674 165.489 217.733 164.407 217.958C163.001 218.251 161.622 218.508 160.268 218.733C159.178 218.913 158.148 218.176 157.968 217.086C157.787 215.997 158.524 214.967 159.614 214.786C160.913 214.571 162.238 214.324 163.593 214.042C164.674 213.817 165.733 214.511 165.958 215.593ZM153.762 217.592C153.839 218.694 153.007 219.649 151.905 219.725C148.962 219.929 146.146 219.962 143.442 219.841C142.339 219.792 141.484 218.857 141.534 217.754C141.583 216.65 142.517 215.796 143.621 215.845C146.168 215.959 148.832 215.928 151.629 215.735C152.731 215.659 153.686 216.49 153.762 217.592ZM5.19464 224.489C6.26634 224.756 6.91833 225.842 6.65089 226.913C6.02345 229.428 5.5341 232.034 5.20675 234.704C5.07233 235.8 4.07458 236.58 2.97822 236.446C1.88186 236.311 1.10206 235.314 1.23649 234.217C1.5841 231.382 2.10366 228.615 2.76991 225.945C3.03735 224.873 4.12293 224.221 5.19464 224.489ZM2.72696 240.615C3.83152 240.612 4.72978 241.504 4.73327 242.609C4.7415 245.215 4.91423 247.851 5.27085 250.492C5.41863 251.587 4.65104 252.594 3.5564 252.742C2.46177 252.89 1.45459 252.122 1.30681 251.028C0.925923 248.206 0.74205 245.396 0.733287 242.621C0.729797 241.517 1.62239 240.619 2.72696 240.615ZM4.39371 256.829C5.45765 256.532 6.56077 257.154 6.85761 258.218C7.55333 260.712 8.43144 263.19 9.50871 265.634C9.95428 266.645 9.49615 267.825 8.48544 268.271C7.47473 268.716 6.29418 268.258 5.8486 267.247C4.69211 264.624 3.7503 261.965 3.00476 259.293C2.70792 258.229 3.32977 257.126 4.39371 256.829ZM10.4431 271.961C11.3792 271.375 12.6134 271.658 13.1999 272.594C14.5607 274.766 16.1056 276.894 17.8486 278.963C18.5603 279.808 18.4525 281.07 17.6077 281.781C16.763 282.493 15.5013 282.385 14.7896 281.54C12.9257 279.328 11.2704 277.048 9.81029 274.718C9.2238 273.782 9.50714 272.548 10.4431 271.961ZM20.4965 284.775C21.2409 283.959 22.5059 283.901 23.3219 284.646C25.21 286.368 27.2659 288.034 29.4999 289.631C30.3984 290.273 30.6061 291.522 29.9638 292.421C29.3214 293.32 28.0722 293.527 27.1737 292.885C24.8136 291.198 22.634 289.433 20.626 287.601C19.81 286.856 19.752 285.591 20.4965 284.775ZM33.4837 294.657C34.0283 293.696 35.2489 293.358 36.2098 293.903C38.435 295.164 40.8009 296.366 43.3142 297.502C44.3209 297.957 44.7682 299.141 44.3135 300.148C43.8587 301.154 42.6741 301.602 41.6674 301.147C39.0469 299.963 36.5722 298.706 34.2374 297.383C33.2765 296.838 32.939 295.618 33.4837 294.657ZM48.1809 301.705C48.5544 300.666 49.6999 300.126 50.7394 300.499C53.1722 301.374 55.7215 302.192 58.3915 302.949C59.4542 303.25 60.0714 304.356 59.7701 305.418C59.4688 306.481 58.3631 307.098 57.3004 306.797C54.5456 306.016 51.9089 305.17 49.3867 304.264C48.3472 303.89 47.8073 302.745 48.1809 301.705ZM63.816 306.43C64.0533 305.352 65.1203 304.669 66.1991 304.907C68.7402 305.466 71.3771 305.974 74.1125 306.429C75.2022 306.61 75.9388 307.64 75.7578 308.729C75.5769 309.819 74.5468 310.556 73.4572 310.375C70.6558 309.909 67.9507 309.388 65.3394 308.813C64.2606 308.576 63.5786 307.509 63.816 306.43ZM79.878 309.313C80.009 308.217 81.0044 307.434 82.1011 307.565C83.4444 307.725 84.809 307.874 86.1951 308.01C87.2944 308.117 88.0982 309.096 87.9904 310.195C87.8827 311.294 86.9041 312.098 85.8048 311.99C84.391 311.852 82.9984 311.7 81.6266 311.537C80.5299 311.406 79.747 310.41 79.878 309.313Z" fill="#EFE0D2"/>
<path d="M117 32.5C117 35.5375 114.538 38 111.5 38C108.462 38 106 35.5375 106 32.5C106 29.4624 108.462 27 111.5 27C114.538 27 117 29.4624 117 32.5Z" fill="#EFE0D2"/>
<path d="M222 80.5C222 83.5375 219.538 86 216.5 86C213.462 86 211 83.5375 211 80.5C211 77.4624 213.462 75 216.5 75C219.538 75 222 77.4624 222 80.5Z" fill="#EFE0D2"/>
<path d="M104 310.5C104 313.538 101.538 316 98.5 316C95.4624 316 93 313.538 93 310.5C93 307.462 95.4624 305 98.5 305C101.538 305 104 307.462 104 310.5Z" fill="#EFE0D2"/>
<path d="M96 194.5C96 197.538 93.5376 200 90.5 200C87.4624 200 85 197.538 85 194.5C85 191.462 87.4624 189 90.5 189C93.5376 189 96 191.462 96 194.5Z" fill="#EFE0D2"/>
<path d="M272.446 32.3876V6.68092C272.446 3.12087 269.544 0.218506 265.984 0.218506H222.462C218.902 0.218506 216 3.12087 216 6.68092V32.3876C216 35.9477 218.902 38.85 222.462 38.85H224.307V46.5992C224.307 48.029 225.465 49.187 226.909 49.187C227.652 49.187 228.367 48.8582 228.868 48.2863L237.031 38.8357H265.998C269.544 38.85 272.446 35.9477 272.446 32.3876ZM236.217 35.3472C235.702 35.3472 235.23 35.5616 234.887 35.9477L227.795 44.1401V37.0915C227.795 36.1192 227.009 35.3329 226.037 35.3329H222.462C220.833 35.3329 219.503 34.0032 219.503 32.3733V6.68092C219.503 5.05102 220.833 3.72137 222.462 3.72137H265.984C267.614 3.72137 268.943 5.05102 268.943 6.68092V32.3876C268.943 34.0175 267.614 35.3472 265.984 35.3472H236.217Z" fill="#EFE0D2"/>
<path d="M263.754 141.618H263.756C263.758 141.618 263.76 141.617 263.762 141.617H291.383C292.063 141.617 292.661 141.166 292.848 140.512L298.941 119.184C299.073 118.724 298.981 118.23 298.693 117.848C298.405 117.467 297.955 117.242 297.477 117.242H260.24L259.151 112.341C258.996 111.644 258.378 111.148 257.664 111.148H248.523C247.682 111.148 247 111.83 247 112.672C247 113.513 247.682 114.195 248.523 114.195H256.442C256.635 115.064 261.654 137.648 261.942 138.947C260.323 139.651 259.188 141.265 259.188 143.141C259.188 145.661 261.238 147.711 263.758 147.711H291.383C292.224 147.711 292.906 147.029 292.906 146.188C292.906 145.346 292.224 144.664 291.383 144.664H263.758C262.918 144.664 262.234 143.981 262.234 143.141C262.234 142.302 262.916 141.62 263.754 141.618ZM295.457 120.289L290.233 138.57H264.98L260.917 120.289H295.457Z" fill="#EFE0D2"/>
<path d="M262.234 155.281C262.234 157.801 264.285 159.852 266.805 159.852C269.325 159.852 271.375 157.801 271.375 155.281C271.375 152.761 269.325 150.711 266.805 150.711C264.285 150.711 262.234 152.761 262.234 155.281ZM266.805 153.758C267.645 153.758 268.328 154.441 268.328 155.281C268.328 156.121 267.645 156.805 266.805 156.805C265.965 156.805 265.281 156.121 265.281 155.281C265.281 154.441 265.965 153.758 266.805 153.758Z" fill="#EFE0D2"/>
<path d="M283.766 155.281C283.766 157.801 285.816 159.852 288.336 159.852C290.856 159.852 292.906 157.801 292.906 155.281C292.906 152.761 290.856 150.711 288.336 150.711C285.816 150.711 283.766 152.761 283.766 155.281ZM288.336 153.758C289.176 153.758 289.859 154.441 289.859 155.281C289.859 156.121 289.176 156.805 288.336 156.805C287.496 156.805 286.812 156.121 286.812 155.281C286.812 154.441 287.496 153.758 288.336 153.758Z" fill="#EFE0D2"/>
<path d="M181.837 106.595C181.812 106.364 181.738 106.14 181.621 105.939C181.503 105.738 181.345 105.564 181.156 105.429C180.966 105.293 180.751 105.199 180.523 105.152C180.294 105.106 180.059 105.108 179.832 105.159C178.651 105.42 175.812 105.7 174.94 102.626C174.666 101.671 174.325 100.736 173.917 99.8299C173.818 99.6088 173.671 99.4123 173.488 99.2542C173.304 99.096 173.088 98.9801 172.855 98.9146C172.621 98.8492 172.377 98.8357 172.138 98.8753C171.899 98.9149 171.671 99.0065 171.471 99.1436L171.768 96.8682C171.824 96.4423 171.712 96.0115 171.455 95.6667C169.97 93.7022 168.221 91.9525 166.256 90.4675C166.041 90.3023 165.788 90.1926 165.52 90.1481C165.253 90.1036 164.978 90.1256 164.721 90.2123L159.359 92.0216L156.858 85.9224C156.769 85.707 156.636 85.5126 156.468 85.352C156.299 85.1914 156.098 85.0682 155.879 84.9904C155.217 84.7578 154.546 84.5328 153.85 84.3201C151.813 83.768 149.927 82.7625 148.334 81.3787C146.74 79.995 145.48 78.2688 144.648 76.3294C144.507 76.0072 144.267 75.7383 143.963 75.5616C143.658 75.3849 143.306 75.3095 142.956 75.3463C136.988 75.98 131.281 78.1307 126.379 81.5936C121.477 85.0565 117.543 89.7164 114.951 95.1298C114.592 95.1184 114.23 95.0958 113.875 95.0958C107.748 95.0926 101.731 96.7188 96.4401 99.8077C91.1493 102.897 86.7752 107.337 83.7663 112.674C80.7574 118.01 79.2219 124.051 79.3172 130.177C79.4126 136.303 81.1354 142.293 84.309 147.533C87.4826 152.774 91.9928 157.076 97.3772 159.999C102.762 162.921 108.826 164.36 114.95 164.166C121.073 163.972 127.035 162.153 132.224 158.895C137.412 155.638 141.641 151.059 144.477 145.628C145.233 145.678 145.994 145.711 146.763 145.711C156.118 145.7 165.086 141.979 171.701 135.365C178.316 128.75 182.037 119.782 182.048 110.427C182.046 109.147 181.975 107.868 181.837 106.595ZM113.874 160.875C105.624 160.863 97.7148 157.588 91.8721 151.764C86.0294 145.941 82.7282 138.042 82.6893 129.793C82.6503 121.543 85.8768 113.614 91.6642 107.735C97.4516 101.857 105.33 98.5066 113.579 98.4166C111.823 103.282 111.157 108.473 111.629 113.624C112.101 118.775 113.699 123.759 116.31 128.224C118.921 132.689 122.481 136.526 126.738 139.463C130.996 142.401 135.846 144.367 140.947 145.223C138.192 149.967 134.244 153.907 129.495 156.653C124.745 159.399 119.359 160.855 113.874 160.875ZM146.759 142.407C141.449 142.4 136.225 141.073 131.555 138.545C126.886 136.017 122.919 132.367 120.012 127.924C117.104 123.481 115.348 118.385 114.9 113.094C114.452 107.803 115.328 102.484 117.448 97.616C117.478 97.5581 117.506 97.4984 117.529 97.4373C119.716 92.4955 123.123 88.1911 127.431 84.9286C131.739 81.6661 136.806 79.5527 142.155 78.7872C143.254 80.8932 144.774 82.7515 146.619 84.2474C148.464 85.7432 150.597 86.8448 152.885 87.4841C153.291 87.6079 153.689 87.7374 154.081 87.8688L156.888 94.712C157.048 95.1012 157.349 95.4151 157.732 95.5897C158.115 95.7642 158.549 95.7864 158.948 95.6516L164.925 93.6343C166.203 94.6713 167.369 95.8405 168.401 97.1225L167.65 102.867C167.606 103.196 167.663 103.531 167.813 103.828C167.963 104.124 168.198 104.368 168.489 104.529C168.779 104.69 169.111 104.76 169.442 104.729C169.773 104.699 170.087 104.569 170.343 104.358L171.678 103.258C171.706 103.352 171.733 103.441 171.759 103.534C172.142 105.026 173.022 106.343 174.254 107.267C175.487 108.192 176.997 108.669 178.537 108.62H178.688C178.723 109.231 178.741 109.835 178.741 110.431C178.732 118.909 175.359 127.038 169.363 133.033C163.367 139.028 155.238 142.399 146.759 142.407Z" fill="#EFE0D2"/>
<path d="M125.501 111C125.006 111 124.523 111.146 124.111 111.421C123.7 111.696 123.38 112.086 123.19 112.543C123.001 113 122.952 113.503 123.048 113.988C123.144 114.473 123.383 114.918 123.732 115.268C124.082 115.617 124.527 115.856 125.012 115.952C125.497 116.048 126 115.999 126.457 115.81C126.914 115.62 127.304 115.3 127.579 114.888C127.854 114.477 128 113.994 128 113.499C127.999 112.837 127.736 112.202 127.267 111.733C126.798 111.264 126.163 111.001 125.501 111Z" fill="#EFE0D2"/>
<path d="M145.501 106C145.006 106 144.523 106.146 144.112 106.421C143.7 106.695 143.38 107.086 143.191 107.543C143.001 107.999 142.952 108.502 143.048 108.987C143.144 109.472 143.382 109.917 143.732 110.267C144.081 110.617 144.526 110.855 145.011 110.952C145.496 111.048 145.999 110.999 146.456 110.81C146.913 110.621 147.303 110.301 147.578 109.89C147.853 109.479 148 108.996 148 108.501C148 107.838 147.737 107.202 147.268 106.733C146.799 106.264 146.164 106.001 145.501 106Z" fill="#EFE0D2"/>
<path d="M135.501 90C135.006 89.9999 134.523 90.1463 134.112 90.4209C133.7 90.6955 133.38 91.0858 133.191 91.5425C133.001 91.9993 132.952 92.5019 133.048 92.9868C133.144 93.4718 133.382 93.9173 133.732 94.2671C134.081 94.6168 134.526 94.8551 135.011 94.9517C135.496 95.0484 135.999 94.9991 136.456 94.8101C136.913 94.6211 137.303 94.3009 137.578 93.8899C137.853 93.4789 138 92.9957 138 92.5012C138 91.8382 137.737 91.2024 137.268 90.7334C136.799 90.2645 136.164 90.0006 135.501 90Z" fill="#EFE0D2"/>
<path d="M145.368 128.431C144.874 128.431 144.39 128.578 143.979 128.853C143.568 129.127 143.248 129.518 143.058 129.975C142.869 130.431 142.82 130.934 142.916 131.419C143.013 131.904 143.251 132.35 143.6 132.699C143.95 133.049 144.395 133.287 144.88 133.383C145.365 133.48 145.868 133.43 146.325 133.241C146.782 133.052 147.172 132.731 147.447 132.32C147.722 131.909 147.868 131.426 147.868 130.931C147.867 130.269 147.604 129.633 147.135 129.164C146.666 128.696 146.031 128.432 145.368 128.431Z" fill="#EFE0D2"/>
<path d="M165.498 115C165.004 115 164.521 115.147 164.11 115.422C163.699 115.697 163.379 116.088 163.19 116.545C163.001 117.001 162.952 117.504 163.048 117.989C163.145 118.474 163.383 118.919 163.733 119.268C164.083 119.618 164.528 119.856 165.013 119.952C165.498 120.048 166 119.999 166.457 119.809C166.914 119.62 167.304 119.3 167.579 118.889C167.853 118.478 168 117.994 168 117.5C167.999 116.837 167.735 116.201 167.266 115.732C166.797 115.264 166.161 115 165.498 115Z" fill="#EFE0D2"/>
<path d="M98.7924 118.992C98.7297 118.417 98.4696 117.882 98.0564 117.477C97.6431 117.072 97.1024 116.823 96.5262 116.773C95.9501 116.722 95.3742 116.873 94.8967 117.199C94.4192 117.525 94.0697 118.007 93.9077 118.563C93.7457 119.118 93.7813 119.712 94.0083 120.244C94.2353 120.776 94.6398 121.213 95.1528 121.48C95.6658 121.747 96.2555 121.828 96.8215 121.709C97.3875 121.59 97.8948 121.279 98.2568 120.828C98.4629 120.572 98.6163 120.279 98.7082 119.964C98.8001 119.648 98.8287 119.318 98.7924 118.992Z" fill="#EFE0D2"/>
<path d="M101.065 140.551C100.754 140.301 100.387 140.129 99.9953 140.05C99.6038 139.97 99.199 139.986 98.8149 140.096C98.4307 140.205 98.0784 140.405 97.7874 140.679C97.4964 140.952 97.2752 141.292 97.1424 141.668C97.0095 142.045 96.9688 142.448 97.0238 142.844C97.0787 143.239 97.2276 143.616 97.458 143.942C97.6885 144.269 97.9938 144.535 98.3483 144.719C98.7028 144.903 99.0963 144.999 99.4957 145C99.5882 145 99.6806 144.995 99.7726 144.985C100.264 144.931 100.728 144.733 101.107 144.415C101.486 144.097 101.762 143.674 101.9 143.2C102.038 142.725 102.033 142.22 101.884 141.749C101.736 141.277 101.451 140.86 101.065 140.551Z" fill="#EFE0D2"/>
<path d="M115.549 147.936C115.255 148.304 115.07 148.747 115.016 149.214C114.963 149.682 115.042 150.155 115.245 150.579C115.449 151.004 115.768 151.362 116.166 151.613C116.563 151.865 117.024 151.999 117.495 152C117.588 152 117.68 151.995 117.772 151.985C118.181 151.94 118.572 151.795 118.912 151.563C119.251 151.331 119.528 151.019 119.718 150.654C119.907 150.289 120.004 149.884 120 149.473C119.995 149.061 119.889 148.658 119.692 148.298C119.494 147.937 119.21 147.631 118.866 147.406C118.521 147.182 118.127 147.045 117.717 147.01C117.308 146.974 116.895 147.039 116.517 147.201C116.139 147.362 115.806 147.614 115.549 147.934V147.936Z" fill="#EFE0D2"/>
<path d="M160.658 83.1197C160.697 83.2948 160.784 83.4588 160.913 83.5973C161.041 83.7358 161.205 83.8445 161.392 83.914C161.579 83.9834 161.783 84.0115 161.985 83.9957C162.187 83.9799 162.382 83.9207 162.552 83.8233L166.434 81.6016C166.646 81.4809 166.811 81.3064 166.907 81.1013C167.003 80.8961 167.025 80.6702 166.971 80.4535C166.917 80.2369 166.79 80.0398 166.605 79.8886C166.421 79.7374 166.188 79.6393 165.938 79.6073L161.425 79.0122C161.228 78.9861 161.027 79.002 160.839 79.0584C160.651 79.1149 160.481 79.2104 160.344 79.3368C160.206 79.4631 160.105 79.6167 160.05 79.7845C159.994 79.9523 159.985 80.1295 160.023 80.301L160.658 83.1197Z" fill="#EFE0D2"/>
<path d="M173.531 89.2725C173.593 89.4266 173.684 89.5652 173.799 89.6792C173.913 89.7933 174.049 89.8804 174.197 89.9349C174.345 89.9893 174.502 90.01 174.658 89.9955C174.814 89.981 174.965 89.9316 175.102 89.8506L177.422 88.4791C177.597 88.3753 177.743 88.2232 177.845 88.0385C177.946 87.8537 178 87.6432 178 87.4288C178 87.2143 177.946 87.0038 177.845 86.8191C177.743 86.6344 177.597 86.4823 177.422 86.3785L173.662 84.1497C173.458 84.0287 173.223 83.9792 172.991 84.0079C172.759 84.0367 172.542 84.1424 172.369 84.3101C172.196 84.4779 172.076 84.6994 172.026 84.9438C171.976 85.1881 171.999 85.443 172.091 85.6728L173.531 89.2725Z" fill="#EFE0D2"/>
<path d="M266.042 259.652L232.725 225.685C237.086 219.865 239.704 212.667 239.704 204.852C239.704 185.634 224.07 170 204.852 170C185.634 170 170 185.634 170 204.852C170 224.07 185.634 239.704 204.852 239.704C212.667 239.704 219.865 237.086 225.685 232.725L259.002 266.692L266.042 259.652ZM173.319 204.852C173.319 187.464 187.464 173.319 204.852 173.319C222.24 173.319 236.384 187.464 236.384 204.852C236.384 222.24 222.24 236.384 204.852 236.384C187.464 236.384 173.319 222.24 173.319 204.852ZM229.027 229.9C229.323 229.615 229.613 229.324 229.899 229.029C230.141 228.778 230.403 228.548 230.637 228.291L261.348 259.652L259 262L228.291 230.637C228.548 230.403 228.777 230.141 229.027 229.9Z" fill="#EFE0D2"/>
<path d="M83.4094 245.066C84.5267 243.641 85.0626 242.113 84.9942 240.54C84.9258 238.807 84.1505 237.45 83.512 236.618C84.2531 234.771 84.5381 231.863 82.064 229.606C80.2512 227.953 77.1728 227.212 72.9086 227.417C69.91 227.554 67.4017 228.112 67.2991 228.135H67.2877C66.7176 228.238 66.1133 228.363 65.4976 228.5C65.452 227.77 65.5774 225.957 66.9228 221.876C68.519 217.019 68.4278 213.302 66.6264 210.816C64.7337 208.205 61.7123 208 60.823 208C59.9679 208 59.1812 208.353 58.6225 209.003C57.3569 210.474 57.5052 213.188 57.6648 214.442C56.1598 218.478 51.9412 228.374 48.3726 231.122C48.3041 231.168 48.2471 231.225 48.1901 231.282C47.1412 232.388 46.4343 233.585 45.9554 234.634C45.2828 234.269 44.5188 234.064 43.6979 234.064H36.743C34.1207 234.064 32 236.196 32 238.807V257.334C32 259.957 34.1321 262.077 36.743 262.077H43.6979C44.7127 262.077 45.659 261.758 46.4343 261.211L49.1137 261.53C49.5241 261.587 56.8211 262.511 64.3119 262.362C65.6686 262.465 66.9456 262.522 68.1314 262.522C70.1722 262.522 71.9509 262.362 73.4331 262.043C76.9219 261.302 79.3048 259.82 80.5134 257.642C81.4369 255.978 81.4369 254.324 81.2887 253.275C83.5576 251.223 83.9566 248.954 83.8768 247.358C83.8312 246.434 83.626 245.648 83.4094 245.066ZM36.743 258.999C35.8195 258.999 35.0784 258.246 35.0784 257.334V238.795C35.0784 237.872 35.8309 237.131 36.743 237.131H43.6979C44.6215 237.131 45.3626 237.883 45.3626 238.795V257.323C45.3626 258.246 44.6101 258.987 43.6979 258.987H36.743V258.999ZM80.4906 243.732C80.0117 244.234 79.9205 244.998 80.2854 245.591C80.2854 245.602 80.7528 246.4 80.8098 247.495C80.8896 248.988 80.1714 250.311 78.6664 251.44C78.1305 251.85 77.9139 252.557 78.1419 253.196C78.1419 253.207 78.6321 254.712 77.834 256.137C77.0701 257.505 75.3713 258.486 72.7946 259.033C70.7309 259.478 67.9261 259.558 64.4829 259.284C64.4373 259.284 64.3803 259.284 64.3233 259.284C56.9921 259.444 49.5811 258.486 49.5013 258.474H49.4899L48.3384 258.338C48.4068 258.018 48.441 257.676 48.441 257.334V238.795C48.441 238.305 48.3612 237.826 48.2243 237.382C48.4296 236.618 48.9996 234.919 50.345 233.471C55.4643 229.412 60.4696 215.719 60.6862 215.126C60.7774 214.886 60.8002 214.624 60.7546 214.362C60.5608 213.085 60.6292 211.523 60.9028 211.056C61.5071 211.067 63.1375 211.238 64.118 212.595C65.281 214.202 65.2354 217.076 63.9812 220.884C62.0658 226.687 61.9061 229.743 63.4225 231.088C64.175 231.761 65.1784 231.795 65.9081 231.533C66.6036 231.373 67.2649 231.236 67.8919 231.134C67.9375 231.122 67.9945 231.111 68.0402 231.099C71.5404 230.336 77.8112 229.868 79.9889 231.852C81.836 233.539 80.5248 235.774 80.3766 236.013C79.9547 236.652 80.0801 237.484 80.6502 237.997C80.6616 238.009 81.8588 239.137 81.9158 240.654C81.9614 241.669 81.4825 242.706 80.4906 243.732Z" fill="#EFE0D2"/>
<path d="M168.977 259.201C168.295 258.519 167.475 258.179 166.518 258.179H134.482C133.525 258.179 132.705 258.519 132.023 259.201C131.341 259.883 131 260.703 131 261.661V285.339C131 286.297 131.341 287.116 132.023 287.798C132.705 288.481 133.525 288.821 134.482 288.821H166.518C167.475 288.821 168.295 288.481 168.977 287.798C169.659 287.116 170 286.297 170 285.339V261.661C170 260.703 169.659 259.883 168.977 259.201ZM167.214 285.339C167.214 285.528 167.145 285.691 167.007 285.829C166.869 285.967 166.706 286.035 166.518 286.035H134.482C134.293 286.035 134.13 285.967 133.992 285.829C133.854 285.691 133.786 285.528 133.786 285.339V268.625C134.25 269.147 134.75 269.626 135.287 270.061C139.176 273.05 142.266 275.502 144.559 277.417C145.299 278.041 145.901 278.527 146.365 278.875C146.829 279.224 147.457 279.575 148.247 279.931C149.038 280.287 149.782 280.464 150.478 280.464H150.522C151.218 280.464 151.962 280.287 152.752 279.931C153.543 279.575 154.171 279.224 154.635 278.875C155.099 278.527 155.702 278.041 156.442 277.417C158.734 275.502 161.824 273.05 165.713 270.061C166.25 269.626 166.75 269.147 167.214 268.625V285.339ZM167.214 262.466C167.214 263.322 166.877 264.276 166.202 265.328C165.528 266.379 164.798 267.217 164.015 267.841C161.215 270.047 158.306 272.346 155.288 274.74C155.201 274.813 154.947 275.027 154.526 275.382C154.105 275.738 153.772 276.01 153.525 276.198C153.278 276.387 152.955 276.616 152.556 276.884C152.157 277.152 151.791 277.352 151.457 277.482C151.124 277.612 150.812 277.678 150.522 277.678H150.478C150.188 277.678 149.876 277.612 149.543 277.482C149.209 277.352 148.842 277.152 148.444 276.884C148.045 276.616 147.722 276.387 147.475 276.198C147.229 276.01 146.895 275.738 146.474 275.382C146.053 275.027 145.799 274.813 145.712 274.74C142.695 272.346 139.786 270.047 136.985 267.841C134.852 266.158 133.786 264.098 133.786 261.66C133.786 261.472 133.855 261.309 133.993 261.171C134.131 261.033 134.294 260.964 134.482 260.964H166.518C166.634 261.029 166.736 261.047 166.823 261.019C166.91 260.989 166.975 261.044 167.019 261.181C167.062 261.319 167.102 261.385 167.138 261.377C167.175 261.37 167.196 261.461 167.204 261.65C167.21 261.838 167.214 261.933 167.214 261.933L167.214 262.466Z" fill="#EFE0D2"/>
<path fill-rule="evenodd" clip-rule="evenodd" d="M222.725 186.137C223.755 186.537 224.265 187.696 223.864 188.725L222 188.001C223.864 188.725 223.865 188.725 223.864 188.725L223.864 188.727L223.863 188.728L223.862 188.732L223.858 188.741L223.847 188.769C223.838 188.791 223.826 188.821 223.81 188.859C223.779 188.934 223.735 189.039 223.676 189.172C223.558 189.438 223.383 189.818 223.143 190.298C222.663 191.258 221.922 192.62 220.859 194.281C220.264 195.211 219.027 195.482 218.097 194.887C217.166 194.292 216.895 193.055 217.49 192.124C218.473 190.59 219.145 189.351 219.566 188.509C219.776 188.088 219.924 187.766 220.017 187.556C220.063 187.451 220.096 187.374 220.115 187.327C220.125 187.303 220.132 187.287 220.135 187.279L220.136 187.276C220.136 187.275 220.136 187.276 220.136 187.276C220.136 187.275 220.137 187.275 220.137 187.274C220.137 187.274 220.137 187.274 220.137 187.273C220.137 187.273 220.138 187.272 220.138 187.272C220.138 187.272 220.138 187.272 220.138 187.272C220.54 186.245 221.697 185.737 222.725 186.137ZM213.187 201.052C213.988 201.812 214.021 203.078 213.26 203.879C210.794 206.478 207.813 209.242 204.234 212.03C203.363 212.709 202.106 212.553 201.428 211.682C200.749 210.811 200.904 209.554 201.776 208.875C205.192 206.213 208.026 203.584 210.36 201.125C211.12 200.324 212.386 200.291 213.187 201.052ZM194.917 216.099C195.48 217.049 195.166 218.276 194.216 218.839C192.54 219.833 190.776 220.814 188.921 221.776C187.94 222.284 186.733 221.902 186.225 220.921C185.716 219.941 186.099 218.733 187.08 218.225C188.868 217.298 190.566 216.353 192.177 215.398C193.127 214.835 194.354 215.149 194.917 216.099Z" fill="#EFE0D2"/>
</svg>
